<svg width="64" height="90" viewBox="0 0 64 90" fill="none" xmlns="http://www.w3.org/2000/svg">
<g clip-path="url(#clip0_18_576)">
<path d="M17.8706 69.7733C20.4825 73.0905 22.8598 76.5846 24.9854 80.2304C26.8001 83.6592 27.5566 85.9843 28.8828 90.1157C29.6961 92.3983 30.4312 93.0796 32.0116 93.0796C33.7338 93.0796 34.5152 91.9206 35.1188 90.1282C36.3724 86.2266 37.3561 83.249 38.9079 80.4354C41.9531 75.0036 45.737 70.1767 49.455 65.5376C50.4615 64.2246 56.9692 56.5756 59.899 50.5402C59.899 50.5402 63.4998 43.9104 63.4998 34.6512C63.4998 25.9901 59.9487 19.9832 59.9487 19.9832L49.7247 22.7116L43.5158 39.0075L41.9797 41.2545L41.6725 41.6616L41.264 42.1712L40.5469 42.9851L39.5222 44.006L33.9932 48.4948L20.1701 56.4481L17.8706 69.7733Z" fill="#34A853"/>
<path d="M3.60376 49.4257C6.97746 57.1047 13.4832 63.8549 17.8848 69.7787L41.264 42.1818C41.264 42.1818 37.9703 46.4743 31.9956 46.4743C25.3405 46.4743 19.9641 41.1786 19.9641 34.5009C19.9641 29.9217 22.7287 26.7759 22.7287 26.7759L6.85835 31.0135L3.60376 49.4257Z" fill="#FBBC04"/>
<path d="M41.5251 4.52271C49.2898 7.01745 55.9358 12.2549 59.9558 19.9779L41.2711 42.166C41.2711 42.166 44.0357 38.9633 44.0357 34.4125C44.0357 27.5794 38.2616 22.4746 32.0239 22.4746C26.1253 22.4746 22.7375 26.7601 22.7375 26.7601V12.7819L41.5251 4.52271Z" fill="#4285F4"/>
<path d="M7.88647 14.3265C12.5241 8.7973 20.6846 3.10352 31.935 3.10352C37.3934 3.10352 41.5056 4.5315 41.5056 4.5315L22.7198 26.7723H9.4098L7.88647 14.3265Z" fill="#1A73E8"/>
<path d="M3.60373 49.4257C3.60373 49.4257 0.5 43.3689 0.5 34.5946C0.5 26.3016 3.73515 19.0525 7.8865 14.3264L22.7304 26.7741L3.60373 49.4257Z" fill="#EA4335"/>
</g>
<defs>
<clipPath id="clip0_18_576">
<rect width="63" height="90" fill="white" transform="translate(0.5)"/>
</clipPath>
</defs>
</svg>
