<svg width="24" height="24" viewBox="0 0 24 24" fill="none" xmlns="http://www.w3.org/2000/svg">
<g clip-path="url(#clip0_285_2264)">
<path d="M4.0579 0C2.50254 0 0.945224 1.22586 0.945224 3.67757L4.0579 10.2155L7.16864 3.67757C7.16864 1.22586 5.61327 0 4.0579 0ZM17.7792 1.99202C17.4438 2.00683 17.1181 2.07374 16.8459 2.13503L17.0306 3.034C17.3028 2.97015 17.5847 2.9298 17.8229 2.91141L17.7792 1.99202ZM4.0579 2.0431C4.91822 2.0431 5.61327 2.77503 5.61327 3.67757C5.61327 4.58164 4.91822 5.31205 4.0579 5.31205C3.19905 5.31205 2.50254 4.58164 2.50254 3.67757C2.50254 2.77503 3.19905 2.0431 4.0579 2.0431ZM18.7464 2.05331L18.6006 2.95738C18.8388 3.00999 19.0769 3.07588 19.2859 3.20766L19.7088 2.40064C19.4123 2.23464 19.0818 2.08549 18.7464 2.05331ZM15.9516 2.39553C15.6551 2.51709 15.3586 2.62589 15.1059 2.73264L15.451 3.57542C15.7183 3.4559 16.0002 3.3517 16.2384 3.26384L15.9516 2.39553ZM20.5059 3.07997L19.84 3.67757C20.015 3.88801 20.1511 4.14748 20.258 4.3569L21.0406 3.94317C20.8753 3.60862 20.7295 3.35527 20.5059 3.07997ZM14.2942 3.12594C13.9977 3.28479 13.7547 3.42627 13.4922 3.5652L13.9199 4.37222C14.1727 4.21899 14.4497 4.07087 14.6733 3.95339L14.2942 3.12594ZM12.7242 4.04022C12.4666 4.19856 12.2139 4.3569 11.966 4.53056L12.4423 5.29672C12.6805 5.13328 12.9284 4.98004 13.1714 4.82681L12.7242 4.04022ZM21.3419 4.95451C21.0552 5.00558 20.7635 5.04134 20.4768 5.07709C20.4962 5.33248 20.4816 5.6083 20.433 5.82282L21.2836 6.03224C21.3322 5.66448 21.376 5.28651 21.3419 4.95451ZM11.2272 5.04134C10.9842 5.215 10.746 5.39377 10.503 5.56743L11.0085 6.31827C11.2418 6.1395 11.4799 5.97095 11.7181 5.79728L11.2272 5.04134ZM9.78846 6.11907C9.54543 6.30295 9.29269 6.50726 9.08369 6.67581L9.61348 7.40622C9.88081 7.20191 10.0655 7.04868 10.3085 6.85969L9.78846 6.11907ZM20.1414 6.52769C19.9956 6.76265 19.8254 6.9976 19.6553 7.17637L20.2921 7.81484C20.5011 7.55435 20.7246 7.28874 20.8802 7.02314L20.1414 6.52769ZM8.38863 7.24788C8.15047 7.44197 7.9123 7.64118 7.7033 7.82506L8.2574 8.53503C8.48584 8.33583 8.71915 8.13152 8.93301 7.96807L8.38863 7.24788ZM19.0526 7.76376C18.829 7.95275 18.5957 8.13663 18.3819 8.28986L18.8825 9.04581C19.1401 8.86193 19.3929 8.66272 19.6116 8.47885L19.0526 7.76376ZM7.02768 8.42266C6.79924 8.61675 6.58052 8.82106 6.35693 9.02027L6.92561 9.72003C7.14434 9.52082 7.36306 9.32162 7.58664 9.12753L7.02768 8.42266ZM17.6674 8.7802C17.4195 8.93343 17.1619 9.09177 16.9286 9.22458L17.3466 10.0367C17.609 9.86815 17.9055 9.72003 18.1243 9.56679L17.6674 8.7802ZM5.69104 9.62809C5.47232 9.8324 5.25845 10.0367 5.03973 10.2461L5.62785 10.9306C5.84172 10.7263 6.06044 10.5219 6.2743 10.3176L5.69104 9.62809ZM16.1655 9.64852C15.9079 9.78132 15.6503 9.91923 15.3926 10.052L15.7669 10.8795C16.0683 10.7263 16.2918 10.5986 16.564 10.4658L16.1655 9.64852ZM14.6101 10.4351C14.3428 10.5628 14.0852 10.6854 13.813 10.8029L14.1678 11.6456C14.4351 11.5231 14.7025 11.3954 14.9698 11.2677L14.6101 10.4351ZM4.39814 10.8795C4.15025 11.1093 3.97771 11.2881 3.75169 11.518L4.36898 12.182C4.59742 11.9521 4.78212 11.7529 4.99599 11.5588L4.39814 10.8795ZM13.0158 11.1757C12.7485 11.2932 12.4812 11.4158 12.2139 11.5333L12.5541 12.3863C12.8263 12.2688 13.0936 12.1462 13.3609 12.0236L13.0158 11.1757ZM11.407 11.8908C11.1397 12.0134 10.8724 12.136 10.6002 12.2484L10.9404 13.1013C11.2077 12.9839 11.4799 12.8613 11.7473 12.7438L11.407 11.8908ZM20.3893 12.2586C18.8339 12.2586 17.2785 13.4844 17.2785 15.9361L20.3893 22.474L23.5 15.9361C23.5 13.4844 21.9446 12.2586 20.3893 12.2586ZM9.79332 12.6059C9.51627 12.7387 9.22464 12.8613 8.98647 12.9685L9.33157 13.8164C9.61834 13.6887 9.89053 13.5662 10.1336 13.4538L9.79332 12.6059ZM8.17963 13.3312C7.91716 13.4589 7.61095 13.6019 7.37764 13.7143L7.73732 14.5519C8.02409 14.4191 8.27684 14.2863 8.52959 14.174L8.17963 13.3312ZM6.57565 14.0974C6.30347 14.2353 6.02156 14.3783 5.77853 14.506L6.17223 15.3283C6.4347 15.1853 6.70689 15.0525 6.94506 14.9299L6.57565 14.0974ZM20.3893 14.3017C21.2496 14.3017 21.9446 15.0321 21.9446 15.9361C21.9446 16.8402 21.2496 17.5706 20.3893 17.5706C19.529 17.5706 18.8339 16.8402 18.8339 15.9361C18.8339 15.0321 19.529 14.3017 20.3893 14.3017ZM4.99112 14.9299C4.73352 15.078 4.47591 15.2313 4.21344 15.3896L4.65089 16.1864C4.89877 16.0332 5.15152 15.8902 5.40427 15.7472L4.99112 14.9299ZM3.45034 15.8851C3.17766 16.0485 2.91422 16.2681 2.68724 16.4265L3.21703 17.162C3.4586 16.9781 3.71864 16.7891 3.92667 16.6563L3.45034 15.8851ZM1.99704 17.0394C1.76374 17.2642 1.53383 17.5247 1.35545 17.7443L2.02134 18.3419C2.20847 18.1018 2.3713 17.9231 2.59003 17.7187L1.99704 17.0394ZM12.5833 17.1058L12.661 18.0201C12.9138 17.9741 13.1665 18.0048 13.4193 18.0456L13.5699 17.1416C13.2492 17.0905 12.9089 17.0547 12.5833 17.1058ZM10.7751 17.6166L11.1057 18.4696C11.3584 18.3521 11.6209 18.2602 11.8882 18.1733C11.7959 17.8822 11.7278 17.5859 11.6549 17.2897C11.3487 17.3816 11.0425 17.5042 10.7751 17.6166ZM14.5421 17.5706L14.0463 18.3266C14.2504 18.4849 14.4497 18.6535 14.6101 18.8629L15.2711 18.2602C15.0232 17.9946 14.8337 17.7443 14.5421 17.5706ZM9.94886 18.0303C9.68153 18.1733 9.42392 18.3368 9.16631 18.4951L9.60862 19.2868C9.86137 19.1438 10.1093 18.9752 10.3571 18.8373L9.94886 18.0303ZM0.821281 18.5922C0.674493 18.9242 0.55541 19.2817 0.5 19.5984L1.36031 19.7567C1.41281 19.4656 1.48814 19.2562 1.59848 19.0059C1.33164 18.8833 1.07694 18.7352 0.821281 18.5922ZM8.40807 18.9906C8.16019 19.1591 7.91716 19.3277 7.67413 19.5013L8.16019 20.2675C8.40321 20.0989 8.64138 19.9253 8.8844 19.7567L8.40807 18.9906ZM15.8301 19.0519L15.0962 19.5524C15.2517 19.7976 15.4024 20.053 15.5433 20.3135L16.3016 19.8538C16.1314 19.5677 16.0099 19.3124 15.8301 19.0519ZM6.94992 20.0223C6.70689 20.1909 6.46386 20.3543 6.2257 20.5331L6.71175 21.2993C6.94506 21.1205 7.19294 20.9519 7.44083 20.7783L6.94992 20.0223ZM1.37003 20.5076C1.08861 20.5689 0.804755 20.6199 0.521872 20.6761C0.572908 21.0337 0.709489 21.381 0.832946 21.6568L1.62278 21.2584C1.51731 21.003 1.41718 20.7374 1.37003 20.5076ZM16.7341 20.6506L15.9759 21.1103C16.1266 21.3861 16.3016 21.6824 16.4425 21.9173L17.1765 21.4219C17.0112 21.1511 16.8702 20.8958 16.7341 20.6506ZM5.50634 21.0337C5.26331 21.192 5.02515 21.3452 4.7724 21.4934L5.20499 22.2953C5.46259 22.1369 5.7202 21.9786 5.96809 21.81L5.50634 21.0337ZM2.04079 21.8662L1.44294 22.5404C1.71319 22.8112 2.04662 22.9899 2.41019 23.0717L2.60461 22.1778C2.3888 22.1318 2.18709 22.0195 2.04079 21.8662ZM4.0336 21.8815C3.79009 21.999 3.53734 22.091 3.27536 22.1472L3.47464 23.0461C3.78669 22.9797 4.08026 22.8571 4.37384 22.7294L4.0336 21.8815ZM17.6576 22.1267L16.982 22.7039C17.191 22.9746 17.4486 23.2351 17.6722 23.419L18.2118 22.6937C17.9979 22.52 17.8132 22.3106 17.6576 22.1267ZM18.829 23.0206L18.6103 23.9144C18.9943 23.9962 19.2811 24.0217 19.6407 23.9808L19.5338 23.0665C19.2956 23.1074 19.0623 23.0819 18.829 23.0206Z" fill="#699BF7"/>
</g>
<defs>
<clipPath id="clip0_285_2264">
<rect width="24" height="24" fill="white"/>
</clipPath>
</defs>
</svg>
